<svg width="42" height="42" viewBox="0 0 42 42" fill="none" xmlns="http://www.w3.org/2000/svg">
<circle cx="21" cy="21" r="21" fill="#FF1818" fill-opacity="0.25"/>
<path d="M12.8101 14.8101C12.9608 14.6592 13.1398 14.5394 13.3369 14.4577C13.5339 14.376 13.7451 14.334 13.9585 14.334C14.1718 14.334 14.383 14.376 14.58 14.4577C14.7771 14.5394 14.9561 14.6592 15.1068 14.8101L21.0001 20.7013L26.8935 14.8101C27.0443 14.6593 27.2233 14.5397 27.4203 14.4581C27.6173 14.3765 27.8285 14.3345 28.0418 14.3345C28.2551 14.3345 28.4662 14.3765 28.6633 14.4581C28.8603 14.5397 29.0393 14.6593 29.1901 14.8101C29.3409 14.9609 29.4605 15.1399 29.5422 15.337C29.6238 15.534 29.6658 15.7452 29.6658 15.9585C29.6658 16.1717 29.6238 16.3829 29.5422 16.5799C29.4605 16.777 29.3409 16.956 29.1901 17.1068L23.299 23.0001L29.1901 28.8935C29.4947 29.198 29.6658 29.6111 29.6658 30.0418C29.6658 30.4725 29.4947 30.8856 29.1901 31.1901C28.8856 31.4947 28.4725 31.6658 28.0418 31.6658C27.6111 31.6658 27.198 31.4947 26.8935 31.1901L21.0001 25.299L15.1068 31.1901C14.8022 31.4947 14.3892 31.6658 13.9585 31.6658C13.5277 31.6658 13.1147 31.4947 12.8101 31.1901C12.5056 30.8856 12.3345 30.4725 12.3345 30.0418C12.3345 29.6111 12.5056 29.198 12.8101 28.8935L18.7013 23.0001L12.8101 17.1068C12.6592 16.9561 12.5394 16.7771 12.4577 16.58C12.376 16.383 12.334 16.1718 12.334 15.9585C12.334 15.7451 12.376 15.5339 12.4577 15.3369C12.5394 15.1398 12.6592 14.9608 12.8101 14.8101Z" fill="#FF1818"/>
</svg>
