<svg width="57" height="57" viewBox="0 0 57 57" fill="none" xmlns="http://www.w3.org/2000/svg">
<path d="M47.3409 30.9725C46.8924 34.3924 45.5215 37.6257 43.375 40.3256C41.2286 43.0256 38.3877 45.0903 35.1571 46.2984C31.9264 47.5065 28.4278 47.8124 25.0365 47.1832C21.6451 46.5541 18.4891 45.0136 15.9067 42.7271C13.3243 40.4405 11.4131 37.4942 10.378 34.204C9.34287 30.9138 9.22291 27.4039 10.031 24.0507C10.839 20.6975 12.5446 17.6276 14.9648 15.1701C17.3851 12.7125 20.4286 10.9602 23.769 10.101C33.0291 7.72597 42.6147 12.4926 46.1534 21.3751" stroke="black" stroke-width="2" stroke-linecap="round" stroke-linejoin="round"/>
<path d="M47.5 9.5V21.375H35.625" stroke="black" stroke-width="2" stroke-linecap="round" stroke-linejoin="round"/>
</svg>
