<svg width="300" height="201" viewBox="0 0 300 201" fill="none" xmlns="http://www.w3.org/2000/svg">
<path d="M53.1045 59.7932C54.0857 60.4182 54.867 61.3369 55.442 62.5432C56.0232 63.7526 56.317 65.0057 56.317 66.3057V67.7932C56.317 68.5276 56.242 69.0744 56.092 69.4307C55.942 69.7807 55.542 70.3151 54.892 71.0307C53.467 72.7557 51.5357 73.6182 49.1045 73.6182C47.5295 73.6182 46.5201 73.0494 46.0795 71.9182C45.1107 71.8932 44.292 71.5619 43.617 70.9182C42.9482 70.2776 42.4451 69.4244 42.1045 68.3557C41.7701 67.2807 41.5295 66.1901 41.3795 65.0807C41.2357 63.9651 41.167 62.7557 41.167 61.4557C41.167 60.1994 41.1701 59.1932 41.1795 58.4432C41.1857 57.6869 41.2295 56.7932 41.3045 55.7682C41.3795 54.7369 41.4795 53.9151 41.6045 53.3057C41.7295 52.6994 41.9076 52.0526 42.142 51.3682C42.3732 50.6869 42.6576 50.1619 42.992 49.7932C43.3232 49.4276 43.7482 49.1244 44.267 48.8807C44.7826 48.6401 45.367 48.5182 46.017 48.5182C46.5576 48.5182 46.9982 48.6869 47.342 49.0182C47.717 48.9182 48.0701 48.8682 48.4045 48.8682C49.8545 48.8682 51.1607 49.5494 52.3295 50.9057C53.4951 52.2557 54.0795 53.8651 54.0795 55.7307C54.0795 57.3057 53.7545 58.6619 53.1045 59.7932ZM47.6545 52.8307C47.5295 55.0807 47.467 57.2026 47.467 59.1932V59.4432C48.4482 59.0682 49.1857 58.5619 49.6795 57.9182C50.1795 57.2776 50.4295 56.6026 50.4295 55.8932C50.4295 55.1776 50.1795 54.5369 49.6795 53.9682C49.1857 53.4026 48.5107 53.0244 47.6545 52.8307ZM52.442 67.9807V66.3057C52.442 65.7244 52.3045 65.0901 52.0295 64.4057C51.7545 63.7244 51.3857 63.2557 50.9295 63.0057C50.6951 62.8557 50.0732 62.7807 49.067 62.7807C48.7076 62.7807 48.1951 62.8026 47.5295 62.8432C47.6951 66.0369 47.9857 68.1557 48.4045 69.2057L49.9795 69.6807C50.9701 69.4494 51.792 68.8807 52.442 67.9807Z" fill="#89CFF0"/>
<path d="M72.5818 56.8306C72.6631 57.065 72.7068 57.315 72.7068 57.5806C72.7068 58.5056 72.2693 59.1275 71.3943 59.4431C69.435 60.0931 67.2943 61.9744 64.9693 65.0806C64.8193 67.265 64.4506 69.4556 63.8693 71.6556C63.76 72.0994 63.5225 72.4556 63.1568 72.7306C62.7881 73.0056 62.4068 73.1431 62.0068 73.1431C61.5225 73.1431 61.0975 72.9806 60.7318 72.6556C60.3631 72.3306 60.1381 71.9275 60.0568 71.4431C59.6725 70.9181 59.4818 70.09 59.4818 68.9556C59.4818 68.2806 59.5006 67.0931 59.5443 65.3931C59.5943 63.6931 59.6193 62.8119 59.6193 62.7431L59.4818 57.6181C59.4381 56.8431 59.5693 56.2119 59.8693 55.7181C60.1756 55.2181 60.6256 54.9681 61.2193 54.9681C61.785 54.9681 62.1631 54.9806 62.3568 55.0056C62.9381 55.0244 63.4443 55.1494 63.8693 55.3806C64.6006 55.7806 64.9693 56.9056 64.9693 58.7556C66.1193 56.99 67.3693 55.8869 68.7193 55.4431C69.2193 55.2775 69.6756 55.1931 70.0943 55.1931C70.7256 55.1931 71.2725 55.3369 71.7318 55.6181C72.1975 55.9025 72.4818 56.3056 72.5818 56.8306Z" fill="#89CFF0"/>
<path d="M80.7359 65.3682C80.7609 65.8026 80.814 66.1901 80.8984 66.5307C80.9796 66.9744 81.1265 67.3494 81.3359 67.6557C81.5015 67.9151 81.8671 68.1776 82.4359 68.4432C82.9859 68.7619 83.4484 68.9401 83.8234 68.9807C84.3734 69.0244 84.6765 69.0432 84.7359 69.0432C84.8015 68.9869 84.9171 68.9151 85.0859 68.8307L85.2734 68.6682C85.564 68.4619 85.9109 68.3557 86.3109 68.3557C87.0265 68.3557 87.5859 68.6401 87.9859 69.2057C88.1921 69.4994 88.2984 69.8432 88.2984 70.2432C88.2984 70.9369 88.014 71.4807 87.4484 71.8807L87.2234 72.0432L86.7484 72.3557C86.289 72.6494 85.7421 72.8244 85.1109 72.8932C84.9859 72.9088 84.7859 72.9182 84.5109 72.9182C84.3265 72.9182 83.9609 72.8963 83.4109 72.8557C83.3515 72.8369 83.2609 72.8307 83.1359 72.8307C82.8359 72.9963 82.5109 73.0807 82.1609 73.0807H81.6234C81.3484 73.0807 80.914 73.0588 80.3234 73.0182C79.7796 72.9932 79.1421 72.8338 78.4109 72.5432C77.6359 72.2682 76.9109 71.8057 76.2359 71.1557C75.5421 70.5057 75.0796 69.7932 74.8484 69.0182C74.6796 68.4119 74.5984 67.8307 74.5984 67.2807L74.6234 65.6182C74.6234 64.8619 74.614 64.3869 74.5984 64.1932C74.5546 63.6932 74.6796 62.8244 74.9734 61.5807C75.264 60.3651 75.5484 59.4651 75.8234 58.8807C76.0734 58.3557 76.3046 57.9244 76.5234 57.5807C76.7046 57.2744 76.9265 56.9807 77.1859 56.7057C77.5609 56.2651 77.989 55.9494 78.4734 55.7557C78.789 55.6151 79.189 55.5432 79.6734 55.5432C79.7984 55.4619 79.889 55.4057 79.9484 55.3807C80.3734 55.1901 80.7109 55.0869 80.9609 55.0682L82.1609 54.9432C82.2171 54.9182 82.3421 54.9182 82.5359 54.9432C82.7171 54.9869 82.8234 54.9932 82.8484 54.9682H82.8734L83.1359 55.0307C83.2765 55.0994 83.3609 55.1182 83.3859 55.0932C83.4015 55.0932 83.4859 55.1276 83.6359 55.1932L83.8859 55.3182L84.1109 55.4432C84.2109 55.5276 84.2796 55.5682 84.3234 55.5682C85.1234 55.9932 85.764 56.5744 86.2484 57.3057C86.7046 57.9744 87.0234 58.6994 87.1984 59.4807C87.3234 60.0651 87.3859 60.7026 87.3859 61.3932C87.3859 62.2776 87.3515 62.8432 87.2859 63.0932C87.2671 63.4276 87.164 63.7744 86.9734 64.1307C86.739 64.6151 86.414 64.9401 85.9984 65.1057C85.5734 65.2994 85.1734 65.3932 84.7984 65.3932H82.2859L80.8609 65.3682H80.7359ZM81.0234 61.4932L82.2859 61.5182H83.5109C83.5109 61.0182 83.4765 60.5994 83.4109 60.2557C83.3515 60.0307 83.239 59.7744 83.0734 59.4807C82.939 59.3057 82.7484 59.1369 82.4984 58.9682L82.1609 58.8182C82.0921 58.8369 82.0015 58.8526 81.8859 58.8682C81.7671 58.8776 81.6796 58.8807 81.6234 58.8807L81.4609 59.0682C81.2265 59.4026 81.0484 59.9057 80.9234 60.5807C80.8796 60.7651 80.839 61.0682 80.7984 61.4932H81.0234Z" fill="#89CFF0"/>
<path d="M97.5767 65.3682C97.6017 65.8026 97.6548 66.1901 97.7392 66.5307C97.8204 66.9744 97.9673 67.3494 98.1767 67.6557C98.3423 67.9151 98.7079 68.1776 99.2767 68.4432C99.8267 68.7619 100.289 68.9401 100.664 68.9807C101.214 69.0244 101.517 69.0432 101.577 69.0432C101.642 68.9869 101.758 68.9151 101.927 68.8307L102.114 68.6682C102.405 68.4619 102.752 68.3557 103.152 68.3557C103.867 68.3557 104.427 68.6401 104.827 69.2057C105.033 69.4994 105.139 69.8432 105.139 70.2432C105.139 70.9369 104.855 71.4807 104.289 71.8807L104.064 72.0432L103.589 72.3557C103.13 72.6494 102.583 72.8244 101.952 72.8932C101.827 72.9088 101.627 72.9182 101.352 72.9182C101.167 72.9182 100.802 72.8963 100.252 72.8557C100.192 72.8369 100.102 72.8307 99.9767 72.8307C99.6767 72.9963 99.3517 73.0807 99.0017 73.0807H98.4642C98.1892 73.0807 97.7548 73.0588 97.1642 73.0182C96.6204 72.9932 95.9829 72.8338 95.2517 72.5432C94.4767 72.2682 93.7517 71.8057 93.0767 71.1557C92.3829 70.5057 91.9204 69.7932 91.6892 69.0182C91.5204 68.4119 91.4392 67.8307 91.4392 67.2807L91.4642 65.6182C91.4642 64.8619 91.4548 64.3869 91.4392 64.1932C91.3954 63.6932 91.5204 62.8244 91.8142 61.5807C92.1048 60.3651 92.3892 59.4651 92.6642 58.8807C92.9142 58.3557 93.1454 57.9244 93.3642 57.5807C93.5454 57.2744 93.7673 56.9807 94.0267 56.7057C94.4017 56.2651 94.8298 55.9494 95.3142 55.7557C95.6298 55.6151 96.0298 55.5432 96.5142 55.5432C96.6392 55.4619 96.7298 55.4057 96.7892 55.3807C97.2142 55.1901 97.5517 55.0869 97.8017 55.0682L99.0017 54.9432C99.0579 54.9182 99.1829 54.9182 99.3767 54.9432C99.5579 54.9869 99.6642 54.9932 99.6892 54.9682H99.7142L99.9767 55.0307C100.117 55.0994 100.202 55.1182 100.227 55.0932C100.242 55.0932 100.327 55.1276 100.477 55.1932L100.727 55.3182L100.952 55.4432C101.052 55.5276 101.12 55.5682 101.164 55.5682C101.964 55.9932 102.605 56.5744 103.089 57.3057C103.545 57.9744 103.864 58.6994 104.039 59.4807C104.164 60.0651 104.227 60.7026 104.227 61.3932C104.227 62.2776 104.192 62.8432 104.127 63.0932C104.108 63.4276 104.005 63.7744 103.814 64.1307C103.58 64.6151 103.255 64.9401 102.839 65.1057C102.414 65.2994 102.014 65.3932 101.639 65.3932H99.1267L97.7017 65.3682H97.5767ZM97.8642 61.4932L99.1267 61.5182H100.352C100.352 61.0182 100.317 60.5994 100.252 60.2557C100.192 60.0307 100.08 59.7744 99.9142 59.4807C99.7798 59.3057 99.5892 59.1369 99.3392 58.9682L99.0017 58.8182C98.9329 58.8369 98.8423 58.8526 98.7267 58.8682C98.6079 58.8776 98.5204 58.8807 98.4642 58.8807L98.3017 59.0682C98.0673 59.4026 97.8892 59.9057 97.7642 60.5807C97.7204 60.7651 97.6798 61.0682 97.6392 61.4932H97.8642Z" fill="#89CFF0"/>
<path d="M122.58 52.0432C122.68 53.1119 122.73 54.465 122.73 56.1057C122.73 58.5807 122.571 61.2494 122.255 64.1057L121.693 69.7432C121.583 70.8119 121.53 71.4682 121.53 71.7182C121.596 71.7869 121.658 71.8557 121.718 71.9307C121.783 72.0057 121.824 72.0619 121.843 72.0932C121.868 72.1182 121.887 72.1525 121.905 72.1932C121.93 72.2369 121.946 72.2775 121.955 72.3182C121.971 72.3619 121.98 72.415 121.98 72.4807C121.98 72.8807 121.574 73.2119 120.768 73.4807C119.958 73.7557 119.237 73.8932 118.605 73.8932C117.68 73.8932 117.196 73.4307 117.155 72.5057C116.462 72.7619 115.824 72.8932 115.243 72.8932C113.158 72.8932 111.474 72.3494 110.193 71.2557C108.918 70.165 108.28 68.64 108.28 66.6807C108.28 64.6057 108.587 62.8994 109.205 61.5557C109.83 60.215 110.812 59.0682 112.155 58.1182C112.512 57.8682 112.899 57.7525 113.318 57.7682C113.993 57.2932 114.78 57.0557 115.68 57.0557C116.355 57.0557 117.068 57.19 117.818 57.4557C117.818 55.9244 117.808 54.7057 117.793 53.8057C117.793 52.9494 117.855 52.2744 117.98 51.7807C118.105 51.2807 118.374 50.8869 118.793 50.5932C119.133 49.8182 119.743 49.4307 120.618 49.4307C121.224 49.4307 121.705 49.6744 122.055 50.1557C122.405 50.64 122.58 51.2682 122.58 52.0432ZM114.33 66.6182C114.621 67.2525 115.493 67.7682 116.943 68.1682C117.068 68.1025 117.274 68.0494 117.568 68.0057L117.693 66.1182C117.733 65.0932 117.774 63.6869 117.818 61.8932C117.233 61.3275 116.48 61.0025 115.555 60.9182C115.43 60.9619 115.268 61.1744 115.068 61.5557C114.868 61.9307 114.712 62.3182 114.605 62.7182L114.33 66.6182Z" fill="#89CFF0"/>
<path d="M149.193 54.3682C149.193 53.0682 148.571 51.9275 147.331 50.9432C146.096 49.9525 144.743 49.4557 143.268 49.4557C142.849 48.9807 142.221 48.7432 141.381 48.7432C140.331 48.7432 139.399 49.2119 138.593 50.1432C137.784 51.0775 137.146 52.2932 136.681 53.7932C136.221 55.2932 135.874 56.89 135.643 58.5807C135.418 60.265 135.306 61.9807 135.306 63.7307C135.306 66.265 136.206 68.5557 138.006 70.6057C139.812 72.6557 141.862 73.6807 144.156 73.6807C144.737 73.6807 145.199 73.5432 145.543 73.2682C145.874 73.3088 146.124 73.3307 146.293 73.3307C147.024 73.3307 147.637 73.1463 148.131 72.7807C148.631 72.415 148.881 71.8932 148.881 71.2182C148.881 70.6775 148.681 70.2275 148.281 69.8682C147.881 69.5119 147.437 69.3307 146.956 69.3307C146.871 69.3307 146.737 69.3494 146.556 69.3807C146.381 69.415 146.231 69.4307 146.106 69.4307C145.181 69.4307 144.281 68.8619 143.406 67.7182C142.537 66.5682 142.106 65.4369 142.106 64.3182C142.106 61.2775 142.171 59.14 142.306 57.9057C142.446 56.665 142.768 55.4869 143.268 54.3682C143.543 53.7432 143.806 53.4307 144.056 53.4307C144.287 53.4307 144.709 53.765 145.318 54.4307C145.343 54.94 145.543 55.3869 145.918 55.7682C146.293 56.1432 146.743 56.3307 147.268 56.3307C147.793 56.3307 148.243 56.1432 148.618 55.7682C148.999 55.3869 149.193 54.9182 149.193 54.3682Z" fill="#89CFF0"/>
<path d="M157.811 72.2931C158.236 72.5869 158.792 72.7306 159.486 72.7306C161.061 72.7306 162.273 72.0369 163.123 70.6431C163.973 69.2431 164.417 67.3275 164.461 64.8931C164.586 63.2931 164.648 62.0775 164.648 61.2431C164.648 60.5431 164.636 60.09 164.611 59.8806C164.511 58.54 163.902 57.4431 162.786 56.5931C161.677 55.7431 160.364 55.3181 158.848 55.3181C156.623 55.3181 155.136 56.1056 154.386 57.6806C153.836 58.54 153.355 59.5556 152.948 60.7306C152.539 61.9056 152.336 62.8869 152.336 63.6681C152.336 65.7431 152.977 67.7556 154.261 69.7056C154.592 70.34 155.123 70.94 155.848 71.5056C156.573 72.0744 157.227 72.3369 157.811 72.2931ZM159.036 59.2181C159.792 59.2181 160.364 59.5244 160.748 60.1306C160.764 60.365 160.773 61.09 160.773 62.3056C160.773 65.3494 160.448 67.4369 159.798 68.5681C158.898 67.9181 158.405 66.9775 158.323 65.7431C158.28 64.6119 158.261 63.59 158.261 62.6806C158.261 60.2494 158.489 59.0744 158.948 59.1556C159.005 59.1994 159.036 59.2181 159.036 59.2181Z" fill="#89CFF0"/>
<path d="M181.767 63.2556C181.792 63.6306 181.804 64.29 181.804 65.2306C181.804 66.9994 181.761 68.89 181.679 70.9056C181.654 71.4306 181.442 71.8681 181.042 72.2181C180.648 72.5619 180.22 72.7306 179.754 72.7306C179.145 72.7306 178.658 72.5275 178.292 72.1181C177.923 71.7119 177.761 71.2244 177.804 70.6556C177.886 69.0806 177.929 67.4244 177.929 65.6806C177.929 64.0806 177.87 62.9431 177.754 62.2681C177.636 61.5869 177.404 61.115 177.054 60.8556C176.004 61.49 174.836 62.6369 173.554 64.2931C173.72 66.6275 173.804 67.8244 173.804 67.8806C173.804 68.0306 173.798 68.2181 173.792 68.4431C173.783 68.6619 173.77 68.9681 173.754 69.3681C173.745 69.7619 173.742 70.1556 173.742 70.5556L173.392 72.3181C172.948 72.9931 172.383 73.3306 171.692 73.3306C171.083 73.3306 170.554 73.1494 170.104 72.7931C169.654 72.4369 169.354 71.965 169.204 71.3806C169.186 71.2556 169.17 71.19 169.154 71.1806C169.145 71.165 169.136 71.1306 169.129 71.0806C169.12 71.0244 169.104 70.965 169.079 70.9056C169.061 70.84 169.02 70.6994 168.954 70.4806C168.895 70.2556 168.823 69.9775 168.742 69.6431C168.108 67.3619 167.792 64.7556 167.792 61.8306C167.792 60.4056 167.798 59.2931 167.817 58.4931C167.867 57.5775 168.058 56.7994 168.392 56.1556C168.723 55.515 169.195 55.1119 169.804 54.9431C170.054 54.9025 170.233 54.8806 170.342 54.8806C170.592 54.8806 170.811 54.9244 171.004 55.0056C171.211 54.965 171.454 54.9431 171.729 54.9431C172.254 54.9431 172.717 55.1306 173.117 55.5056C173.492 55.8806 173.679 56.3306 173.679 56.8556C173.679 57.2806 173.561 57.64 173.329 57.9306C174.361 56.84 175.529 56.065 176.829 55.6056C177.411 55.6056 177.929 55.6306 178.379 55.6806C178.836 55.7306 179.233 55.8525 179.567 56.0431C179.898 56.2369 180.183 56.4119 180.417 56.5681C180.648 56.7181 180.845 56.99 181.004 57.3806C181.161 57.7744 181.286 58.1119 181.379 58.3931C181.47 58.6775 181.542 59.1369 181.592 59.7681C181.648 60.3931 181.686 60.9181 181.704 61.3431C181.729 61.7619 181.748 62.3994 181.767 63.2556Z" fill="#89CFF0"/>
<path d="M198.923 63.2556C198.948 63.6306 198.961 64.29 198.961 65.2306C198.961 66.9994 198.917 68.89 198.836 70.9056C198.811 71.4306 198.598 71.8681 198.198 72.2181C197.804 72.5619 197.376 72.7306 196.911 72.7306C196.301 72.7306 195.814 72.5275 195.448 72.1181C195.079 71.7119 194.917 71.2244 194.961 70.6556C195.042 69.0806 195.086 67.4244 195.086 65.6806C195.086 64.0806 195.026 62.9431 194.911 62.2681C194.792 61.5869 194.561 61.115 194.211 60.8556C193.161 61.49 191.992 62.6369 190.711 64.2931C190.876 66.6275 190.961 67.8244 190.961 67.8806C190.961 68.0306 190.954 68.2181 190.948 68.4431C190.939 68.6619 190.926 68.9681 190.911 69.3681C190.901 69.7619 190.898 70.1556 190.898 70.5556L190.548 72.3181C190.104 72.9931 189.539 73.3306 188.848 73.3306C188.239 73.3306 187.711 73.1494 187.261 72.7931C186.811 72.4369 186.511 71.965 186.361 71.3806C186.342 71.2556 186.326 71.19 186.311 71.1806C186.301 71.165 186.292 71.1306 186.286 71.0806C186.276 71.0244 186.261 70.965 186.236 70.9056C186.217 70.84 186.176 70.6994 186.111 70.4806C186.051 70.2556 185.979 69.9775 185.898 69.6431C185.264 67.3619 184.948 64.7556 184.948 61.8306C184.948 60.4056 184.954 59.2931 184.973 58.4931C185.023 57.5775 185.214 56.7994 185.548 56.1556C185.879 55.515 186.351 55.1119 186.961 54.9431C187.211 54.9025 187.389 54.8806 187.498 54.8806C187.748 54.8806 187.967 54.9244 188.161 55.0056C188.367 54.965 188.611 54.9431 188.886 54.9431C189.411 54.9431 189.873 55.1306 190.273 55.5056C190.648 55.8806 190.836 56.3306 190.836 56.8556C190.836 57.2806 190.717 57.64 190.486 57.9306C191.517 56.84 192.686 56.065 193.986 55.6056C194.567 55.6056 195.086 55.6306 195.536 55.6806C195.992 55.7306 196.389 55.8525 196.723 56.0431C197.054 56.2369 197.339 56.4119 197.573 56.5681C197.804 56.7181 198.001 56.99 198.161 57.3806C198.317 57.7744 198.442 58.1119 198.536 58.3931C198.626 58.6775 198.698 59.1369 198.748 59.7681C198.804 60.3931 198.842 60.9181 198.861 61.3431C198.886 61.7619 198.904 62.3994 198.923 63.2556Z" fill="#89CFF0"/>
<path d="M208.242 65.3682C208.267 65.8026 208.32 66.1901 208.404 66.5307C208.485 66.9744 208.632 67.3494 208.842 67.6557C209.007 67.9151 209.373 68.1776 209.942 68.4432C210.492 68.7619 210.954 68.9401 211.329 68.9807C211.879 69.0244 212.182 69.0432 212.242 69.0432C212.307 68.9869 212.423 68.9151 212.592 68.8307L212.779 68.6682C213.07 68.4619 213.417 68.3557 213.817 68.3557C214.532 68.3557 215.092 68.6401 215.492 69.2057C215.698 69.4994 215.804 69.8432 215.804 70.2432C215.804 70.9369 215.52 71.4807 214.954 71.8807L214.729 72.0432L214.254 72.3557C213.795 72.6494 213.248 72.8244 212.617 72.8932C212.492 72.9088 212.292 72.9182 212.017 72.9182C211.832 72.9182 211.467 72.8963 210.917 72.8557C210.857 72.8369 210.767 72.8307 210.642 72.8307C210.342 72.9963 210.017 73.0807 209.667 73.0807H209.129C208.854 73.0807 208.42 73.0588 207.829 73.0182C207.285 72.9932 206.648 72.8338 205.917 72.5432C205.142 72.2682 204.417 71.8057 203.742 71.1557C203.048 70.5057 202.585 69.7932 202.354 69.0182C202.185 68.4119 202.104 67.8307 202.104 67.2807L202.129 65.6182C202.129 64.8619 202.12 64.3869 202.104 64.1932C202.06 63.6932 202.185 62.8244 202.479 61.5807C202.77 60.3651 203.054 59.4651 203.329 58.8807C203.579 58.3557 203.81 57.9244 204.029 57.5807C204.21 57.2744 204.432 56.9807 204.692 56.7057C205.067 56.2651 205.495 55.9494 205.979 55.7557C206.295 55.6151 206.695 55.5432 207.179 55.5432C207.304 55.4619 207.395 55.4057 207.454 55.3807C207.879 55.1901 208.217 55.0869 208.467 55.0682L209.667 54.9432C209.723 54.9182 209.848 54.9182 210.042 54.9432C210.223 54.9869 210.329 54.9932 210.354 54.9682H210.379L210.642 55.0307C210.782 55.0994 210.867 55.1182 210.892 55.0932C210.907 55.0932 210.992 55.1276 211.142 55.1932L211.392 55.3182L211.617 55.4432C211.717 55.5276 211.785 55.5682 211.829 55.5682C212.629 55.9932 213.27 56.5744 213.754 57.3057C214.21 57.9744 214.529 58.6994 214.704 59.4807C214.829 60.0651 214.892 60.7026 214.892 61.3932C214.892 62.2776 214.857 62.8432 214.792 63.0932C214.773 63.4276 214.67 63.7744 214.479 64.1307C214.245 64.6151 213.92 64.9401 213.504 65.1057C213.079 65.2994 212.679 65.3932 212.304 65.3932H209.792L208.367 65.3682H208.242ZM208.529 61.4932L209.792 61.5182H211.017C211.017 61.0182 210.982 60.5994 210.917 60.2557C210.857 60.0307 210.745 59.7744 210.579 59.4807C210.445 59.3057 210.254 59.1369 210.004 58.9682L209.667 58.8182C209.598 58.8369 209.507 58.8526 209.392 58.8682C209.273 58.8776 209.185 58.8807 209.129 58.8807L208.967 59.0682C208.732 59.4026 208.554 59.9057 208.429 60.5807C208.385 60.7651 208.345 61.0682 208.304 61.4932H208.529Z" fill="#89CFF0"/>
<path d="M231.945 57.8681C231.945 58.5025 231.673 59.0056 231.133 59.3806C230.708 59.715 230.223 59.8525 229.683 59.7931L229.495 59.7556C229.177 59.6994 228.77 59.5525 228.27 59.3181C228.077 59.2369 227.898 59.1806 227.733 59.1556C227.389 59.115 227.114 59.0931 226.908 59.0931H226.845C226.702 59.2431 226.589 59.3744 226.508 59.4806C226.248 59.79 225.973 60.3775 225.683 61.2431C225.389 62.1619 225.202 63.0931 225.12 64.0431C225.052 65.0931 225.02 65.7994 225.02 66.1556C225.02 66.5306 225.033 66.7931 225.058 66.9431L225.208 67.2556C225.373 67.5244 225.586 67.7525 225.845 67.9431C226.136 68.1931 226.42 68.3931 226.695 68.5431C226.736 68.5619 226.798 68.5931 226.883 68.6431C226.964 68.6869 227.014 68.7056 227.033 68.7056H227.508C227.839 68.49 228.198 68.3806 228.583 68.3806C229.248 68.3806 229.773 68.6556 230.158 69.2056C230.408 69.5244 230.533 69.8806 230.533 70.2806C230.533 70.9744 230.248 71.5181 229.683 71.9181L229.458 72.0681C228.998 72.4025 228.486 72.5681 227.92 72.5681H227.32C226.986 72.5681 226.745 72.5619 226.595 72.5431C226.32 72.6431 226.07 72.6931 225.845 72.6931H225.583C225.358 72.6931 224.983 72.665 224.458 72.6056C223.698 72.4994 222.995 72.2556 222.345 71.8806C221.845 71.59 221.414 71.2931 221.058 70.9931C220.673 70.6869 220.295 70.2775 219.92 69.7681C219.377 69.0775 219.061 68.2806 218.97 67.3806C218.97 67.2744 218.964 67.1056 218.958 66.8806C218.948 66.6494 218.945 66.4556 218.945 66.3056C218.945 66.1806 218.948 65.9744 218.958 65.6806C218.964 65.3806 218.97 65.1494 218.97 64.9806C218.995 64.0556 219.083 63.2806 219.233 62.6556C219.333 62.1306 219.573 61.3556 219.958 60.3306C220.289 59.4056 220.614 58.64 220.933 58.0306C221.373 57.315 221.802 56.79 222.22 56.4556C222.702 56.0556 223.236 55.7931 223.82 55.6681C224.177 55.5869 224.536 55.5431 224.895 55.5431H225.183C225.623 55.3275 226.198 55.2181 226.908 55.2181C227.498 55.2181 228.002 55.265 228.42 55.3556C228.927 55.44 229.423 55.5931 229.908 55.8181L230.12 55.9181L230.245 55.9431C230.752 56.0119 231.186 56.265 231.545 56.7056C231.77 57.065 231.902 57.4525 231.945 57.8681Z" fill="#89CFF0"/>
<path d="M246.269 56.4182C246.86 56.8026 247.157 57.3182 247.157 57.9682C247.157 58.2776 247.072 58.6245 246.907 59.0057C246.463 59.7995 245.319 60.3245 243.469 60.5807L243.094 60.6432C243.069 61.1026 242.985 62.1745 242.844 63.8557C242.775 64.8651 242.744 65.462 242.744 65.6432C242.744 66.987 243.007 67.8995 243.532 68.3807C244.082 68.5307 244.532 68.7776 244.882 69.1182C245.238 69.4526 245.419 69.8276 245.419 70.2432C245.419 70.937 245.185 71.5245 244.719 72.0057C244.26 72.4901 243.747 72.7307 243.182 72.7307C241.688 72.7307 240.65 72.387 240.069 71.6932C238.725 70.0932 238.085 67.8151 238.144 64.8557C238.185 64.5245 238.225 63.3276 238.269 61.2682L236.982 61.4557C236.482 61.5245 236.035 61.3557 235.644 60.9557C235.25 60.5557 235.069 60.087 235.094 59.5432C235.069 59.037 235.244 58.6026 235.619 58.2432C236 57.887 236.475 57.6651 237.044 57.5807L238.369 57.3682V54.7557C238.369 53.8745 238.41 53.2745 238.494 52.9557L238.557 52.7057C238.682 52.2245 238.957 51.837 239.382 51.5432C239.672 50.8932 240.172 50.5151 240.882 50.4057C240.947 50.3901 241.057 50.3807 241.207 50.3807C241.582 50.3807 241.947 50.5057 242.307 50.7557C242.747 51.1151 242.997 51.5432 243.057 52.0432L243.094 52.2682C243.135 52.6026 243.157 52.8432 243.157 52.9932C243.213 54.1682 243.244 55.0401 243.244 55.6057V56.5807L243.532 56.5432C244.747 56.337 245.419 56.2307 245.544 56.2307C245.86 56.2307 246.1 56.2932 246.269 56.4182Z" fill="#89CFF0"/>
</svg>
