<svg width="42" height="42" viewBox="0 0 42 42" fill="none" xmlns="http://www.w3.org/2000/svg">
<circle cx="21" cy="21" r="21" fill="#89CFF0" fill-opacity="0.25"/>
<path d="M26.2145 13.8138C25.9275 13.6541 25.6119 13.5526 25.2856 13.515C24.9594 13.4774 24.6289 13.5044 24.3131 13.5946C23.9974 13.6848 23.7025 13.8364 23.4453 14.0407C23.1882 14.2449 22.9738 14.4979 22.8145 14.7851L18.1732 23.1376L15.517 20.4813C15.2864 20.2425 15.0105 20.0521 14.7055 19.9211C14.4005 19.79 14.0724 19.7211 13.7405 19.7182C13.4085 19.7153 13.0793 19.7786 12.7721 19.9043C12.4648 20.03 12.1857 20.2156 11.951 20.4503C11.7163 20.6851 11.5306 20.9642 11.4049 21.2714C11.2792 21.5787 11.216 21.9079 11.2188 22.2398C11.2217 22.5718 11.2907 22.8998 11.4217 23.2048C11.5527 23.5098 11.7432 23.7857 11.982 24.0163L16.982 29.0163C17.4545 29.4901 18.092 29.7501 18.7495 29.7501L19.0957 29.7251C19.4789 29.6715 19.8444 29.5296 20.1635 29.3108C20.4826 29.0919 20.7465 28.802 20.9345 28.4638L27.1845 17.2138C27.344 16.9269 27.4455 16.6113 27.4831 16.2852C27.5207 15.959 27.4937 15.6286 27.4037 15.3129C27.3136 14.9972 27.1622 14.7023 26.9582 14.4451C26.7541 14.1879 26.5014 13.9734 26.2145 13.8138Z" fill="#89CFF0"/>
</svg>
