<svg width="700" height="700" viewBox="0 0 700 700" fill="none" xmlns="http://www.w3.org/2000/svg">
<mask id="mask0_84_1012" style="mask-type:luminance" maskUnits="userSpaceOnUse" x="229" y="203" width="235" height="349">
<path d="M229.308 203.911H463.108V551.111H229.308V203.911Z" fill="white"/>
</mask>
<g mask="url(#mask0_84_1012)">
<path d="M442.531 551.097H249.885C238.605 551.097 229.461 541.946 229.461 530.658V224.335C229.461 213.055 238.605 203.904 249.885 203.904H442.531C453.811 203.904 462.955 213.055 462.955 224.335V530.658C462.955 541.946 453.811 551.097 442.531 551.097Z" fill="#89CFF0"/>
</g>
<mask id="mask1_84_1012" style="mask-type:luminance" maskUnits="userSpaceOnUse" x="229" y="203" width="235" height="171">
<path d="M229.308 203.911H463.108V373.333H229.308V203.911Z" fill="white"/>
</mask>
<g mask="url(#mask1_84_1012)">
<mask id="mask2_84_1012" style="mask-type:luminance" maskUnits="userSpaceOnUse" x="-70" y="-70" width="840" height="840">
<path d="M770 -70H-70V770H770V-70Z" fill="black" fill-opacity="0.1294"/>
</mask>
<g mask="url(#mask2_84_1012)">
<mask id="mask3_84_1012" style="mask-type:luminance" maskUnits="userSpaceOnUse" x="227" y="203" width="238" height="171">
<path d="M464.8 203.467H227.733V373.333H464.8V203.467Z" fill="white"/>
</mask>
<g mask="url(#mask3_84_1012)">
<mask id="mask4_84_1012" style="mask-type:luminance" maskUnits="userSpaceOnUse" x="229" y="203" width="235" height="170">
<path d="M229.374 203.912H463.108V372.736H229.374V203.912Z" fill="white"/>
</mask>
<g mask="url(#mask4_84_1012)">
<path d="M462.955 371.131V224.336C462.955 213.055 453.914 203.904 442.757 203.904H249.659C238.503 203.904 229.461 213.055 229.461 224.336V307.847C300.701 355.221 377.927 378.751 462.955 371.131Z" fill="white"/>
</g>
</g>
</g>
</g>
<mask id="mask5_84_1012" style="mask-type:luminance" maskUnits="userSpaceOnUse" x="229" y="184" width="318" height="406">
<path d="M229.6 184.8H546.933V589.867H229.6V184.8Z" fill="white"/>
</mask>
<g mask="url(#mask5_84_1012)">
<mask id="mask6_84_1012" style="mask-type:luminance" maskUnits="userSpaceOnUse" x="225" y="180" width="326" height="413">
<path d="M312.229 180.994L550.164 239.407L463.371 592.907L225.444 534.494L312.229 180.994Z" fill="white"/>
</mask>
<g mask="url(#mask6_84_1012)">
<mask id="mask7_84_1012" style="mask-type:luminance" maskUnits="userSpaceOnUse" x="225" y="180" width="326" height="413">
<path d="M312.229 180.994L550.164 239.407L463.371 592.907L225.444 534.494L312.229 180.994Z" fill="white"/>
</mask>
<g mask="url(#mask7_84_1012)">
<path d="M442.437 587.752L246.386 539.62C234.909 536.805 227.894 525.204 230.709 513.713L307.278 201.826C310.1 190.342 321.694 183.305 333.171 186.127L529.222 234.26C540.699 237.074 547.721 248.675 544.899 260.167L468.329 572.046C465.508 583.538 453.914 590.567 442.437 587.752Z" fill="#89CFF0"/>
</g>
</g>
</g>
<mask id="mask8_84_1012" style="mask-type:luminance" maskUnits="userSpaceOnUse" x="268" y="179" width="283" height="234">
<path d="M268.8 179.2H550.666V412.533H268.8V179.2Z" fill="white"/>
</mask>
<g mask="url(#mask8_84_1012)">
<mask id="mask9_84_1012" style="mask-type:luminance" maskUnits="userSpaceOnUse" x="225" y="180" width="326" height="413">
<path d="M312.229 180.994L550.163 239.407L463.37 592.907L225.443 534.494L312.229 180.994Z" fill="white"/>
</mask>
<g mask="url(#mask9_84_1012)">
<mask id="mask10_84_1012" style="mask-type:luminance" maskUnits="userSpaceOnUse" x="225" y="180" width="326" height="413">
<path d="M312.229 180.994L550.163 239.407L463.37 592.907L225.443 534.494L312.229 180.994Z" fill="white"/>
</mask>
<g mask="url(#mask10_84_1012)">
<mask id="mask11_84_1012" style="mask-type:luminance" maskUnits="userSpaceOnUse" x="-71" y="-70" width="841" height="840">
<path d="M770 -70H-70.0005V770H770V-70Z" fill="black" fill-opacity="0.1294"/>
</mask>
<g mask="url(#mask11_84_1012)">
<mask id="mask12_84_1012" style="mask-type:luminance" maskUnits="userSpaceOnUse" x="268" y="179" width="283" height="234">
<path d="M550.666 179.2H268.799V412.533H550.666V179.2Z" fill="white"/>
</mask>
<g mask="url(#mask12_84_1012)">
<mask id="mask13_84_1012" style="mask-type:luminance" maskUnits="userSpaceOnUse" x="285" y="184" width="262" height="227">
<path d="M285.599 184.8H546.932V410.667H285.599V184.8Z" fill="white"/>
</mask>
<g mask="url(#mask13_84_1012)">
<mask id="mask14_84_1012" style="mask-type:luminance" maskUnits="userSpaceOnUse" x="225" y="180" width="326" height="413">
<path d="M312.228 180.994L550.163 239.407L463.37 592.907L225.443 534.494L312.228 180.994Z" fill="white"/>
</mask>
<g mask="url(#mask14_84_1012)">
<mask id="mask15_84_1012" style="mask-type:luminance" maskUnits="userSpaceOnUse" x="225" y="180" width="326" height="413">
<path d="M312.228 180.994L550.163 239.407L463.37 592.907L225.443 534.494L312.228 180.994Z" fill="white"/>
</mask>
<g mask="url(#mask15_84_1012)">
<path d="M508.199 409.624L544.898 260.167C547.72 248.675 540.8 237.103 529.447 234.311L332.944 186.069C321.591 183.283 310.099 190.342 307.277 201.826L286.409 286.854C347.068 352.888 419.766 396.134 508.199 409.624Z" fill="white"/>
</g>
</g>
</g>
</g>
</g>
</g>
</g>
</g>
<mask id="mask16_84_1012" style="mask-type:luminance" maskUnits="userSpaceOnUse" x="309" y="313" width="178" height="162">
<path d="M309.867 313.126H486.245V474.126H309.867V313.126Z" fill="white"/>
</mask>
<g mask="url(#mask16_84_1012)">
<path d="M356.752 459.703C356.84 458.099 356.913 456.495 357 454.891C356.738 450.202 356.409 446.286 356.14 443.392C355.513 436.654 355.111 432.432 353.959 426.854C353.391 424.142 352.836 421.458 351.677 417.929C351.334 416.894 350.08 413.153 346.063 405.176C342.643 398.366 342.81 399.62 340.747 395.143C340.747 395.143 338.406 390.09 335.752 380.924C335.366 379.641 335.118 378.328 335.001 376.986C334.914 375.922 334.914 374.85 335.001 373.778C335.657 371.693 336.182 369.578 336.569 367.427C337.116 364.474 337.378 363.001 337.218 361.01C336.868 356.942 334.928 353.471 333.317 353.092C332.704 352.953 332.092 352.931 331.479 353.026C331.136 353.099 330.845 353.201 330.291 353.405C329.729 353.617 329.153 353.857 328.81 354.01C328.57 354.12 328.307 354.193 328.045 354.229C327.709 354.266 327.381 354.244 327.053 354.163C325.741 353.865 326.018 354.098 324.363 353.66C322.963 353.288 322.715 353.106 318.799 351.641C318.179 351.422 317.581 351.145 317.013 350.824C316.765 350.678 316.065 350.27 315.445 349.737C314.264 348.709 313.695 347.47 313.323 346.617C312.659 345.1 312.324 343.518 312.295 341.87C312.229 341.542 312.12 341.031 311.952 340.419C311.639 339.274 311.456 338.975 311.34 338.151C311.245 337.509 311.165 336.977 311.398 336.379C311.558 335.942 311.806 335.665 312.04 335.409C312.404 334.994 312.834 334.658 313.323 334.41L315.08 333.455C316.67 332.58 316.794 332.485 317.764 331.968C318.588 331.523 319.565 331.012 320.308 330.633C321.621 329.948 321.913 329.809 322.386 329.43C322.955 328.978 323.458 328.453 323.896 327.87C324.202 327.454 324.516 327.009 324.749 326.338C324.895 325.916 324.982 325.478 325.004 325.033C325.019 324.333 325.026 323.641 325.033 322.941C325.186 322.481 325.391 322.051 325.653 321.643C325.901 321.256 326.2 320.899 326.535 320.578C327.039 320.104 327.352 319.966 328.453 319.324C328.796 319.12 328.059 319.55 330.677 317.96C331.669 317.355 332.165 317.056 332.281 316.991C333.769 316.101 335.315 315.328 336.919 314.679C337.371 314.504 337.896 314.3 338.625 314.067C339.464 313.804 340.98 313.337 342.993 313.199C343.977 313.126 344.961 313.141 345.946 313.243C346.551 313.265 347.142 313.33 347.732 313.447C348.199 313.542 348.724 313.651 349.373 313.943C349.716 314.096 350.044 314.278 350.357 314.482L351.648 315.313L353.551 316.553L354.988 317.486C356.971 318.777 358.735 320.286 359.384 320.848C360.216 321.562 361.061 322.299 362.104 323.4C363.147 324.494 363.73 325.237 363.942 325.507C364.664 326.426 365.152 327.155 365.517 327.709C366.239 328.796 366.727 329.656 366.953 330.035C367.996 331.844 368.9 333.309 370.708 336.241C371.102 336.875 370.913 336.554 373.414 340.499C376.476 345.311 376.892 345.99 377.978 347.601C378.576 348.476 379.174 349.336 380.377 351.065C381.726 352.997 382.441 354.025 383.206 355.082C385.693 358.538 387.822 361.178 389.565 363.322C390.884 364.962 392.197 366.53 392.35 366.712L393.582 368.163C395.879 370.869 397.046 372.298 399.117 374.733C401.297 377.307 402.967 379.225 405.723 382.397C407.108 383.994 408.282 385.335 409.135 386.305L417.36 395.784C418.994 397.673 420.642 399.561 422.304 401.457C423.682 403.025 425.053 404.578 426.424 406.117L429.888 410.018L433.49 414.298L436.472 418.133C437.157 419.103 437.85 420.08 438.543 421.057C439.323 422.348 440.103 423.631 440.891 424.922L443.414 429.749C443.822 430.748 444.23 431.747 444.646 432.738C445.032 433.745 445.419 434.831 445.769 435.998C446.126 437.165 446.374 438.098 446.607 439.068C446.833 440.037 446.935 440.84 447.11 441.729C447.497 443.917 447.614 446.119 447.46 448.335C447.439 448.802 447.395 449.305 447.315 449.845C447.242 450.392 447.176 450.705 447.096 451.092V453.367C447.169 453.782 447.256 454.198 447.373 454.606C447.541 455.182 447.723 455.817 448.124 456.524C448.547 457.268 449.094 457.909 449.765 458.442C450.071 458.682 450.538 459.047 451.245 459.287C451.631 459.426 452.04 459.499 452.448 459.513C452.878 459.513 453.294 459.448 453.695 459.317C454.344 459.112 454.759 458.821 455.27 458.478C455.86 458.07 456.407 457.618 456.918 457.107C457.975 456.261 458.93 455.306 459.791 454.256C460.44 453.476 461.016 452.645 461.526 451.762C461.913 451.092 462.255 450.399 462.554 449.677C463.043 448.496 463.407 447.271 463.648 446.017C464.107 443.654 464.027 441.78 463.954 440.278C463.903 439.257 463.816 437.741 463.364 435.816C463.123 434.838 462.911 433.949 462.416 432.921C462 432.024 461.132 430.529 459.404 429.136C458.507 428.538 457.246 427.678 455.78 426.577C454.096 425.323 453.133 424.608 452.01 423.536C450.742 422.326 449.597 421.006 448.591 419.57C448.16 418.935 447.84 418.257 447.643 417.521C447.468 416.85 447.38 416.172 447.388 415.486C447.38 414.823 447.446 414.159 447.577 413.51C447.628 413.168 447.716 412.84 447.84 412.526C448.088 411.899 448.416 411.491 448.671 411.177C448.941 410.834 449.247 410.528 449.59 410.273C450.122 409.865 450.596 409.697 451.063 409.536C451.792 409.281 452.543 409.135 453.316 409.092C453.688 409.062 454.213 409.033 454.84 408.99C455.715 408.946 456.167 408.924 456.735 408.931C457.311 408.938 457.866 408.99 458.449 409.041C459.586 409.157 460.476 409.303 460.899 409.383C463.641 409.879 466.266 410.732 468.774 411.943C470.116 412.57 471.056 413.102 472.041 413.671C473.419 414.451 474.345 414.991 475.519 415.866C476.058 416.274 476.532 416.66 477.05 417.083C477.954 417.827 478.465 418.257 479.077 418.841C479.901 419.628 480.667 420.474 481.359 421.371C481.994 422.202 482.563 423.062 483.08 423.967C483.824 425.265 484.451 426.628 484.947 428.043C485.384 429.238 485.698 430.471 485.909 431.732C486.07 432.702 486.157 433.679 486.172 434.671L486.186 439.031C486.15 439.833 486.084 440.854 485.946 442.028C485.793 443.384 485.559 444.726 485.253 446.053C484.874 447.708 484.364 449.32 483.722 450.895C483.131 452.309 482.439 453.673 481.644 454.985C480.463 456.94 479.369 458.252 478.574 459.2C477.458 460.527 476.255 461.781 474.979 462.955C473.761 464.085 471.785 465.908 468.861 467.709C467.425 468.592 465.93 469.372 464.377 470.035C461.541 471.297 458.602 472.223 455.554 472.828L449.327 473.667L446.046 473.798C440.468 473.783 435.976 473.791 432.833 473.798C429.122 473.805 426.883 473.82 422.742 473.812L416.536 473.798L408.807 473.812L400.167 473.82L394.705 473.798C394.764 473.448 394.771 473.091 394.72 472.741C394.654 472.281 394.523 471.975 394.268 471.392C394.078 470.954 393.867 470.538 393.633 470.123C393.611 469.955 393.611 469.78 393.633 469.605C393.692 469.284 393.83 468.993 394.056 468.752C394.29 468.431 394.494 468.088 394.676 467.731C394.88 467.301 395.033 466.9 395.281 466.083C395.522 465.267 395.704 464.625 395.908 463.597C396.076 462.744 396.2 461.883 396.28 461.016V456.881C396.215 456.619 396.127 456.225 396.032 455.744C395.828 454.759 395.763 454.198 395.682 453.731C395.507 452.71 395.238 451.996 394.851 450.968C394.465 449.932 393.998 448.933 393.444 447.971C392.78 446.819 392.007 445.761 391.118 444.777C390.301 443.844 389.499 443.1 388.201 441.89L387.268 441.044V438.317C387.428 437.602 387.647 436.902 387.909 436.217C388.179 435.531 388.442 434.86 388.952 434.087C389.302 433.562 389.463 433.453 389.944 432.717C390.199 432.337 390.432 431.944 390.636 431.535C390.943 430.901 391.176 430.237 391.336 429.552C391.614 428.619 391.803 427.809 391.927 427.182C392.109 426.249 392.204 425.498 392.27 424.922C392.335 424.353 392.386 423.857 392.416 423.485C392.423 422.209 392.43 420.933 392.438 419.657C392.306 419.132 392.168 418.702 392.058 418.374C391.949 418.046 391.883 417.885 391.716 417.718C391.541 417.535 391.329 417.433 391.089 417.39C390.994 417.375 390.753 417.36 390.286 417.616C389.922 417.82 389.696 418.038 389.455 418.272C388.558 419.125 388.588 419.008 388.114 419.511C387.858 419.781 387.771 419.898 387.224 420.591C386.065 422.042 386.065 421.983 385.583 422.632C385.102 423.274 384.716 423.777 384.3 424.455C383.877 425.141 383.534 425.892 382.929 427.233C382.324 428.582 381.989 429.333 381.792 430.019C381.668 430.463 381.58 430.821 381.34 431.353C381.084 431.907 380.764 432.418 380.37 432.877C380.297 432.928 380.217 432.957 380.129 432.972C379.867 432.994 379.684 432.782 379.655 432.753C379.495 432.644 379.364 432.512 379.247 432.352C379.167 432.228 379.094 432.068 378.963 431.754C378.904 431.608 378.817 431.411 378.736 431.229C378.452 430.631 378.058 429.836 377.548 428.896C377.147 428.152 376.52 426.993 375.718 425.797C374.916 424.608 374.106 423.653 372.597 421.932C371.839 421.065 370.81 419.927 369.556 418.622C369.396 418.432 369.199 418.294 368.966 418.206C368.47 418.038 368.04 418.243 367.857 418.337C367.544 418.491 367.289 418.709 367.092 419.008C367.011 419.351 366.924 419.701 366.829 420.044C366.785 420.488 366.749 420.933 366.705 421.371C366.713 421.655 366.727 422.049 366.771 422.516C366.829 423.128 366.902 423.602 366.997 424.185C367.267 425.746 367.391 426.533 367.58 427.262C367.741 427.897 367.938 428.517 368.171 429.129C368.382 429.647 368.572 430.026 368.951 430.762C369.06 430.981 369.498 431.849 370.22 433.118C370.949 434.386 370.759 434 371.496 435.291C371.875 435.969 372.298 436.72 372.743 437.23C372.91 437.427 373.071 437.631 373.253 437.821C373.428 438.018 373.581 438.171 373.691 438.353C373.8 438.55 373.873 438.754 373.917 438.98V440.592C373.836 440.781 373.727 440.993 373.596 441.241C373.435 441.518 373.253 441.787 373.056 442.043C372.91 442.24 372.75 442.422 372.582 442.597C372.582 442.597 372.422 442.779 371.62 443.734C370.818 444.69 370.11 445.82 369.469 446.819C368.936 447.665 368.565 448.313 368.331 448.707C367.923 449.436 367.704 449.816 367.449 450.362C367.135 451.055 366.873 451.762 366.669 452.499C366.384 453.447 366.188 454.409 366.078 455.394C365.976 456.174 365.976 456.713 365.954 457.749C365.925 459.287 365.918 460.06 366.049 461.016C366.224 462.248 366.53 463.174 366.785 463.91C367.041 464.661 367.332 465.398 367.675 466.112C368.236 467.25 368.907 468.322 369.695 469.321L369.673 470.203C369.476 470.32 369.294 470.451 369.119 470.59C368.747 470.896 368.411 471.238 368.12 471.61C367.784 472.033 367.522 472.383 367.318 472.923C367.216 473.222 367.143 473.528 367.121 473.849H365.852C365.269 473.849 364.846 473.856 364.729 473.863C362.104 473.893 359.895 473.805 359.895 473.805C358.59 473.747 358.48 473.703 357.292 473.674C356.103 473.652 355.943 473.674 354.951 473.667C353.172 473.637 351.4 473.47 349.65 473.156C348.928 473.032 348.279 472.894 347.659 472.383C347.441 472.201 346.857 471.705 346.609 470.845C346.442 470.261 346.522 469.802 346.639 469.073C346.792 468.169 347.083 467.316 347.514 466.506C347.791 465.967 348.126 465.463 348.513 464.99C348.95 464.465 349.46 464.012 350.029 463.633C350.875 463.086 351.794 462.766 352.793 462.671L354.506 462.598C354.761 462.561 355.002 462.488 355.235 462.365C355.542 462.211 355.79 461.993 356.001 461.716C356.592 460.979 356.723 460.075 356.752 459.703Z" fill="black"/>
</g>
<mask id="mask17_84_1012" style="mask-type:luminance" maskUnits="userSpaceOnUse" x="246" y="364" width="92" height="111">
<path d="M246.845 364H337.867V474.126H246.845V364Z" fill="white"/>
</mask>
<g mask="url(#mask17_84_1012)">
<path d="M300.438 474.075C303.246 474.111 306.104 474.119 309.013 474.097C311.792 474.075 314.526 474.024 317.217 473.944C317.807 474.024 318.383 473.966 318.952 473.769C319.134 473.71 319.302 473.63 319.477 473.543C319.579 473.419 319.659 473.273 319.71 473.112C319.82 472.784 319.769 472.485 319.688 472.157C319.535 471.574 319.324 471.012 319.047 470.473C318.843 470.064 318.587 469.693 318.281 469.357C317.873 468.898 317.399 468.519 316.859 468.22C316.159 467.819 315.401 467.549 314.599 467.418L307.847 467.578L307.03 467.556V466.871C307.205 466.769 307.46 466.616 307.752 466.411C308.044 466.207 308.299 465.974 309.006 465.303C309.721 464.632 310.136 464.253 310.377 463.983C310.618 463.713 310.8 463.509 311.164 463.035C311.77 462.262 312.397 461.453 313.06 460.279C313.6 459.331 314.059 458.347 314.438 457.326C314.781 456.458 315.044 455.569 315.233 454.657C315.35 454.059 315.423 453.542 315.467 453.162V449.837C315.401 449.495 315.313 449.057 315.175 448.561C315.044 448.095 314.891 447.635 314.716 447.183C314.511 446.651 314.278 446.133 314.008 445.63C313.782 445.222 313.534 444.821 313.264 444.434C313.031 444.113 312.776 443.8 312.506 443.501H312.761L313.593 444.223C314.096 444.653 314.169 444.711 314.336 444.879C314.628 445.178 314.891 445.506 315.117 445.863C315.714 446.702 316.086 447.628 316.239 448.649C316.305 448.999 316.342 449.349 316.356 449.706C316.407 450.523 316.451 451.347 316.487 452.185C316.56 453.666 316.604 455.124 316.626 456.553C316.735 457.734 316.881 458.748 317.012 459.557C317.107 460.155 317.253 461.052 317.53 462.233C317.691 462.948 317.88 463.735 318.201 464.727C318.529 465.726 318.631 465.777 319.061 466.987C319.258 467.549 319.273 467.673 319.958 469.926C320.52 471.785 320.585 471.982 320.768 472.281C321.373 473.258 322.262 473.783 322.911 474.075L326.688 474.089L328.023 474.075C328.417 474.053 328.796 473.951 329.153 473.776C329.416 473.652 329.795 473.462 330.13 473.039C330.363 472.726 330.517 472.376 330.589 471.997L330.582 470.48C330.385 469.999 330.108 469.569 329.758 469.197C329.292 468.686 328.737 468.322 328.096 468.103H326.703C326.492 467.964 326.302 467.804 326.134 467.607C325.937 467.381 325.784 467.126 325.66 466.849C325.339 466.142 325.157 465.427 325.011 464.829C324.873 464.238 324.742 463.692 324.581 462.831C324.421 461.978 324.333 461.198 324.311 461.045C324.311 461.045 324.238 460.345 324.195 459.572C324.078 457.603 324.253 455.138 324.282 454.701C324.311 454.256 324.377 453.578 324.486 452.834C324.669 451.544 324.887 450.603 325.106 449.633C325.493 447.993 325.879 446.702 326.105 445.98C326.338 445.251 326.564 444.602 327.082 443.158C327.957 440.672 328.008 440.635 328.417 439.418C329.066 437.463 329.423 436.114 329.503 435.808C329.766 434.787 330.013 433.847 330.203 432.556C330.349 431.586 330.422 430.762 330.458 430.157C330.451 429.231 330.451 428.305 330.444 427.379C330.4 427.117 330.334 426.723 330.247 426.249C330.072 425.228 329.984 424.718 329.904 424.36C329.736 423.587 329.51 422.829 329.241 422.085C328.825 420.955 328.366 420.095 327.702 418.848C327.192 417.885 326.9 417.411 326.725 416.573C326.623 416.084 326.586 415.596 326.601 415.1C326.586 414.721 326.63 414.342 326.739 413.977C326.834 413.656 326.936 413.306 327.243 412.985C327.461 412.752 327.731 412.599 328.045 412.526C328.752 412.409 329.343 412.278 329.78 412.176C330.706 411.95 331.486 411.753 332.398 411.272C332.748 411.097 333.054 410.936 333.419 410.63C333.958 410.178 334.272 409.711 334.578 409.237C334.892 408.756 334.95 408.552 335.628 407.312L336.109 406.474C336.168 406.197 336.168 405.927 336.109 405.657C336.022 405.329 335.876 405.132 335.716 404.884C335.555 404.644 335.373 404.243 335.11 403.616C334.753 402.77 334.614 402.041 334.512 401.501C334.425 401.049 334.367 400.597 334.33 400.137C334.323 399.262 334.316 398.387 334.308 397.512C334.243 397.213 334.162 396.914 334.068 396.623C333.98 396.353 333.543 395.099 332.332 393.633C331.866 393.086 331.362 392.576 330.816 392.102C329.736 391.169 328.562 390.367 327.294 389.71C326.966 389.557 326.674 389.353 326.411 389.098C326.105 388.792 325.864 388.449 325.682 388.055C325.245 387.202 324.873 386.32 324.581 385.408C324.348 384.679 324.158 383.935 324.012 383.177C323.888 382.521 323.801 381.857 323.75 381.194C323.75 381.011 323.706 380.844 323.611 380.691C323.422 380.406 323.108 380.348 322.97 380.326C322.838 380.297 322.729 380.289 322.313 380.392C322.029 380.457 321.752 380.552 321.482 380.676C320.972 380.917 320.498 381.23 320.075 381.602C319.783 381.857 319.171 382.433 318.288 383.804C317.858 384.482 317.53 385.102 316.903 386.334C316.108 387.873 316.079 388.062 315.598 388.835C314.942 389.914 314.475 390.418 313.994 390.804C313.644 391.081 313.585 391.059 313.126 391.402C312.951 391.526 312.331 392.007 311.456 392.984C310.486 394.042 309.655 395.208 308.97 396.47C307.635 398.934 306.921 401.574 306.833 404.374C306.731 404.746 306.585 405.227 306.388 405.759C306.119 406.496 305.798 407.21 305.433 407.903C304.843 409.026 304.296 409.762 303.275 411.148C303.012 411.505 302.517 412.132 301.532 413.394C300.431 414.801 299.877 415.508 299.52 415.946C298.441 417.258 297.587 418.213 297.099 418.753C296.034 419.927 295.75 420.16 293.322 422.654C290.894 425.141 290.967 425.104 289.224 426.869C287.685 428.414 287.583 428.48 286.694 429.421C285.505 430.668 284.564 431.645 283.442 433.045C282.676 434 281.874 434.999 280.97 436.472C280.357 437.463 279.818 438.492 279.336 439.556C278.607 441.189 278.053 442.888 277.667 444.638C277.295 446.301 277.076 447.985 277.01 449.684V454.759C277.091 456.196 277.2 457.384 277.295 458.252C277.389 459.12 277.477 459.842 277.594 460.687C277.71 461.541 277.834 462.437 278.038 463.699C278.184 464.559 278.316 465.288 278.425 465.821C278.534 466.112 278.454 466.331 278.192 466.484C277.995 466.594 277.732 466.535 277.535 466.353C277.258 466.214 277.003 466.047 276.762 465.857C276.332 465.529 275.968 465.143 275.654 464.705C275.435 464.421 275.049 463.852 274.422 462.459C273.992 461.497 273.722 460.753 273.43 459.944C273.138 459.127 272.883 458.412 272.613 457.479C272.278 456.305 272.008 455.117 271.811 453.913C271.629 452.805 271.279 450.61 271.388 447.876C271.432 447.03 271.505 446.235 271.542 445.849C271.614 445.163 271.731 443.96 271.964 442.721C272.263 441.138 272.657 440.03 273.204 438.477C273.496 437.653 273.919 436.625 274.757 434.576C275.209 433.468 275.581 432.571 276.004 431.572C276.879 429.479 277.032 429.144 277.324 428.422C277.812 427.241 278.491 425.498 279.205 423.252C279.409 422.574 279.606 421.83 279.781 421.006C279.949 420.182 280.051 419.482 280.124 418.804C280.16 418.447 280.204 417.951 280.226 417.36C280.255 416.843 280.255 416.318 280.226 415.793C280.168 414.925 279.985 414.086 279.679 413.277C279.402 412.519 279.023 411.826 278.534 411.184C278.177 410.725 277.776 410.324 277.317 409.967C277.324 409.828 277.302 409.697 277.258 409.566C277.214 409.456 277.149 409.354 277.069 409.259C276.85 408.953 276.617 408.669 276.361 408.392C275.982 408.005 275.793 407.881 275.588 407.816C275.45 407.772 275.311 407.75 275.166 407.75H274.568L273.992 407.735C273.919 407.597 273.86 407.473 273.817 407.393C273.773 407.305 273.736 407.167 273.736 407.137C273.744 406.999 273.795 406.889 273.897 406.802L274.422 406.437C274.706 406.248 275.268 405.854 275.734 405.511C276.208 405.169 276.719 404.738 277.623 403.987L278.607 403.142H279.023C279.03 403.207 279.059 403.266 279.096 403.324C279.132 403.375 279.169 403.426 279.205 403.47C279.307 403.594 279.307 403.616 279.344 403.645C279.38 403.681 279.504 403.703 279.723 403.594C279.949 403.492 280.102 403.251 280.343 403.003C280.824 402.514 281.276 401.997 281.699 401.45C282.486 400.414 282.946 399.459 283.296 398.737C283.792 397.731 284.047 396.966 284.477 395.741C284.856 394.654 285.082 393.837 285.367 392.86C285.811 391.307 285.943 390.651 286.008 390.294C286.132 389.623 286.205 389.054 286.249 388.646L286.234 386.086C286.154 385.532 286.03 384.993 285.877 384.453C285.797 384.205 285.724 383.964 285.636 383.738V383.17C285.782 382.856 285.928 382.535 286.074 382.222L287.014 380.829L287.729 379.473L287.919 378.846L287.897 377.716L288.305 377.329L289.093 377.293L290.194 377.314C290.522 377.256 290.835 377.161 291.142 377.037C291.382 376.928 291.616 376.811 291.842 376.68C292.119 376.52 292.352 376.367 292.52 376.243C292.563 376.192 292.614 376.141 292.658 376.082C292.709 376.024 292.738 375.995 292.775 375.951H292.913C292.943 376.002 292.979 376.06 293.008 376.111C293.074 376.235 293.125 376.359 293.161 376.491C293.161 376.855 293.161 377.22 293.161 377.577C293.147 377.664 293.118 377.745 293.088 377.825C293.037 377.942 292.979 378.044 292.913 378.153C292.855 378.241 292.804 378.335 292.76 378.437C292.738 378.51 292.666 378.729 292.768 378.919C292.804 378.984 292.855 379.043 292.913 379.086C292.979 379.086 293.037 379.086 293.096 379.079C293.161 379.064 293.22 379.043 293.278 379.013C293.402 378.941 293.511 378.853 293.613 378.758C293.788 378.598 293.942 378.43 294.073 378.241C294.955 377.008 295.006 376.943 295.094 376.76C295.239 376.454 295.363 376.133 295.466 375.805C295.633 375.317 295.764 374.821 295.859 374.31C295.903 373.902 295.947 373.494 295.983 373.078C295.983 372.852 295.976 372.626 295.976 372.407C295.976 372.035 295.939 371.678 295.852 371.321C295.786 371.044 295.699 370.774 295.589 370.511L295.072 369.41C294.984 369.097 294.904 368.783 294.809 368.462C294.773 368.01 294.729 367.558 294.685 367.106C294.62 366.917 294.532 366.734 294.437 366.559C294.292 366.311 294.117 366.085 293.905 365.881C293.679 365.626 293.424 365.4 293.147 365.203C292.943 365.043 292.731 364.911 292.505 364.802C292.374 364.744 292.235 364.693 292.104 364.656L289.18 364.525H286.11C285.454 364.576 284.375 364.729 283.288 365.225C282.88 365.407 282.501 365.626 282.144 365.888C281.976 366.02 281.823 366.144 281.218 366.727C280.204 367.719 280.284 367.697 279.956 367.959C279.519 368.309 279.052 368.616 278.556 368.878C278.111 369.126 277.71 369.301 277.411 369.432C277.338 369.454 277.295 369.505 277.258 369.571C277.222 369.651 277.222 369.731 277.258 369.811C277.302 369.913 277.346 370.001 277.404 370.096C277.477 370.227 277.521 370.263 277.521 370.329C277.521 370.395 277.338 370.599 277.273 370.643C276.959 370.847 276.704 371.138 276.376 371.321C275.909 371.583 275.479 371.904 275.085 372.276C275.063 372.298 274.969 372.378 274.969 372.473C274.976 372.568 275.012 372.575 275.085 372.67L275.224 372.801C275.289 372.859 275.333 372.925 275.355 373.012C275.362 373.093 275.348 373.166 275.319 373.238C275.304 373.319 275.275 373.384 275.231 373.45C275.107 373.647 274.925 373.902 274.706 374.186C274.385 374.587 274.043 374.952 273.663 375.287C273.386 375.528 273.102 375.747 272.796 375.951C271.87 376.607 271.68 376.593 271.243 377.037C271.002 377.285 270.791 377.555 270.608 377.861C270.368 378.233 270.295 378.437 269.967 379.094C269.748 379.502 269.631 379.743 269.463 380.02C269.062 380.676 268.596 381.274 268.042 381.806C267.801 382.032 267.845 381.967 267.283 382.47C267.145 382.586 266.824 382.878 266.248 383.425C265.679 383.972 265.118 384.497 264.323 385.328C263.528 386.159 263.63 386.116 263.302 386.414C262.967 386.713 262.216 387.362 261.639 387.902C261.428 388.099 261.253 388.332 261.129 388.595C261.071 388.719 261.027 388.85 260.991 388.988V390.082C260.91 390.279 260.779 390.549 260.626 390.884C260.553 391.045 260.371 391.424 260.225 391.708C259.962 392.211 259.751 392.503 259.467 392.941C258.803 393.939 258.475 394.435 258.176 395.113C258.096 395.303 257.95 395.733 257.658 396.608C257.367 397.483 257.323 397.687 257.162 398.096C257.104 398.249 256.929 398.694 256.389 399.729C255.792 400.874 255.682 400.947 255.099 402.055C254.516 403.171 254.814 402.741 254.202 403.958C254.202 403.958 253.779 404.797 253.692 405.57C253.67 405.73 253.67 405.883 253.699 406.044C253.764 406.401 253.918 406.481 253.954 406.78C253.991 407.072 253.91 407.174 253.837 407.363C253.713 407.67 253.538 407.939 253.298 408.166C252.744 408.712 252.292 409.347 251.781 409.93C251.271 410.521 251.475 410.36 250.6 411.439C249.732 412.519 249.601 412.606 248.937 413.474C248.792 413.671 248.945 413.474 248.062 414.684C247.763 415.1 247.392 415.618 247.129 416.237C247.034 416.5 246.969 416.77 246.947 417.047C246.91 417.317 246.903 417.455 246.976 417.528C247.151 417.688 247.625 417.433 247.902 417.214C248.172 417.003 248.23 416.908 248.514 416.58C248.682 416.391 248.901 416.259 249.091 416.084C249.105 416.07 249.163 416.011 249.2 416.026C249.229 416.048 249.214 416.157 249.207 416.194C249.193 416.303 249.149 416.398 249.098 416.493C249.054 416.58 249.01 416.668 248.959 416.748C248.828 416.981 248.828 417.025 248.463 417.681C248.055 418.439 247.968 418.542 247.895 418.855C247.844 419.03 247.822 419.212 247.829 419.395C247.836 419.657 247.844 419.854 247.946 419.956C248.23 420.255 249.214 419.643 249.608 419.402C250.002 419.161 250.345 418.884 250.884 418.461C251.417 418.038 250.943 418.439 253.553 416.442L254.603 415.639H255.536C256.032 415.399 256.441 415.158 256.747 414.976C257.323 414.626 257.746 414.312 258.081 414.064C258.424 413.817 258.555 413.707 258.708 413.583C258.774 413.525 258.854 413.503 258.942 413.51C259.014 413.525 259.066 413.561 259.117 413.612C259.197 413.7 259.241 413.802 259.262 413.919C259.248 414.05 259.226 414.247 259.204 414.487C259.066 415.822 259.007 416.434 258.934 417.171C258.81 418.388 258.818 418.206 258.672 419.555C258.548 420.795 258.555 420.824 258.417 422.26C258.256 423.813 258.234 423.835 258.125 425.053C258.037 425.899 257.972 426.613 257.913 427.561C257.833 428.641 257.855 428.706 257.782 429.676C257.717 430.646 257.68 430.821 257.549 432.272C257.425 433.613 257.447 433.482 257.279 435.407C257.119 437.339 257.089 437.412 257.017 438.375C256.922 439.666 256.878 440.686 256.849 441.277C256.805 442.269 256.798 442.597 256.761 443.902C256.674 446.454 256.63 447.737 256.528 448.948C256.375 450.727 256.287 451.617 256.134 452.091C255.886 452.922 255.711 453.775 255.617 454.635C255.602 454.767 255.595 454.898 255.602 455.022C255.595 455.335 255.609 455.423 255.668 455.488C255.726 455.561 255.77 455.62 255.901 455.605C256.032 455.591 256.12 455.481 256.156 455.437C256.193 455.394 256.244 455.204 256.287 454.898C256.36 454.46 256.419 454.293 256.433 454.242C256.499 454.074 256.579 453.855 256.674 453.855C256.776 453.855 256.973 454.38 256.973 454.402C256.98 454.628 256.987 454.81 257.002 454.956C257.009 455.117 257.031 455.277 257.06 455.43C257.097 455.62 257.148 455.853 257.221 455.86C257.286 455.868 257.316 455.707 257.447 455.277C257.578 454.839 257.629 454.701 257.702 454.519C257.848 454.147 257.913 454.139 258.059 453.797C258.205 453.461 258.176 453.396 258.314 452.929C258.446 452.462 258.468 452.506 258.708 451.755C258.949 451.004 258.934 450.946 259.095 450.552C259.211 450.246 259.357 449.954 259.525 449.677C259.817 449.218 259.97 449.159 260.371 448.627C260.641 448.299 260.867 447.942 261.063 447.57C261.18 447.329 261.231 447.169 261.516 446.06C261.771 445.061 261.902 444.551 262.011 444.026C262.128 443.508 262.223 442.998 262.288 442.648C262.507 441.459 262.507 441.189 262.675 440.307C262.799 439.651 262.908 439.199 263.091 438.448C263.2 438.01 263.382 437.245 263.812 435.743C264.25 434.233 264.33 434.007 264.848 432.213C265.205 430.959 265.387 430.325 265.497 429.866C265.847 428.371 265.767 428.181 266.138 426.417C266.321 425.534 266.496 424.871 266.809 423.631C266.999 422.902 267.006 422.902 267.458 421.196C267.991 419.161 268.093 418.775 268.144 418.542C268.231 418.148 268.355 417.521 268.603 416.274C268.938 414.641 269.041 414.043 269.347 413.175C269.485 412.774 269.646 412.38 269.828 412.001H270.214C270.302 412.074 270.397 412.147 270.492 412.22L271.235 412.234L271.381 412.92C271.381 413.095 271.381 413.27 271.381 413.445C271.469 413.656 271.6 413.838 271.775 413.984C271.921 414.116 272.293 414.385 272.774 414.4C272.963 414.4 273.109 414.363 273.248 414.473C273.364 414.553 273.423 414.67 273.423 414.808C273.423 414.896 273.386 414.925 273.306 415.093C273.306 415.093 273.277 415.151 273.189 415.392C272.985 415.953 273.036 417.01 273.036 417.01C273.051 417.258 272.92 417.878 272.65 419.125C272.599 419.358 272.475 419.912 272.125 421.334C271.782 422.756 271.629 423.369 271.396 424.207C271.337 424.404 271.097 425.294 270.732 426.489C270.441 427.416 270.389 427.525 269.835 429.246C269.427 430.514 269.223 431.142 269.026 431.798C268.756 432.702 268.581 433.366 268.289 434.445C267.91 435.867 267.721 436.574 267.538 437.398C267.305 438.368 267.021 439.724 266.758 441.343C266.518 442.83 266.401 443.895 266.372 444.186C266.313 444.777 266.27 445.28 266.248 445.667C266.117 447.431 266.117 449.196 266.248 450.96C266.357 452.506 266.547 453.702 266.642 454.227C266.685 454.504 266.889 455.678 267.283 457.202C267.436 457.793 267.655 458.668 268.042 459.791C268.217 460.294 268.552 461.234 269.07 462.379C269.267 462.824 269.653 463.655 270.222 464.683C270.375 464.96 270.82 465.762 271.629 467.002C272.686 468.635 273.226 469.452 274.064 470.422C275.559 472.121 276.66 472.777 277.01 472.974C277.382 473.185 277.769 473.368 278.162 473.521C278.906 473.812 279.672 474.002 280.467 474.075H300.438Z" fill="black"/>
</g>
<mask id="mask18_84_1012" style="mask-type:luminance" maskUnits="userSpaceOnUse" x="463" y="251" width="50" height="47">
<path d="M463.626 251.402H512.626V297.602H463.626V251.402Z" fill="white"/>
</mask>
<g mask="url(#mask18_84_1012)">
<path d="M484.269 297.354C484.364 297.194 483.7 297.106 482.453 297.106C481.192 297.106 480.229 296.975 479.777 296.734C479.383 296.538 478.873 296.37 478.632 296.37C478.399 296.363 478.202 296.253 478.202 296.115C478.202 295.983 477.976 295.874 477.699 295.874C477.422 295.874 477.13 295.706 477.05 295.502C476.977 295.298 476.78 295.13 476.62 295.13C476.459 295.13 476.168 294.897 475.964 294.605C475.767 294.314 475.46 293.934 475.293 293.759C475.118 293.577 474.979 293.307 474.979 293.154C474.979 293.001 474.884 292.935 474.768 293.008C474.644 293.081 474.476 292.702 474.389 292.163C474.301 291.616 474.126 291.178 473.987 291.178C473.689 291.178 473.659 287.554 473.958 287.365C474.075 287.292 474.243 286.883 474.33 286.453C474.418 286.023 474.695 285.498 474.95 285.272C475.198 285.053 475.482 284.623 475.584 284.317C475.679 284.01 475.854 283.814 475.964 283.879C476.073 283.952 476.241 283.719 476.328 283.369C476.467 282.815 476.853 282.37 478.136 281.291C478.311 281.145 478.45 280.809 478.45 280.54C478.45 280.277 478.552 280.058 478.669 280.058C478.793 280.058 478.975 279.388 479.07 278.578C479.165 277.761 479.34 277.091 479.464 277.091C479.587 277.091 479.69 276.93 479.69 276.741C479.69 276.544 479.937 276.347 480.236 276.31C480.543 276.267 480.929 275.953 481.104 275.61C481.272 275.268 481.418 275.1 481.418 275.224C481.418 275.355 481.556 275.326 481.717 275.166C481.877 275.005 482.212 274.867 482.46 274.867C482.708 274.867 482.905 274.728 482.905 274.553C482.905 274.378 483.139 274.218 483.423 274.196C483.707 274.174 484.218 273.875 484.568 273.525C484.954 273.139 485.479 272.891 485.909 272.891C486.303 272.891 486.617 272.781 486.617 272.643C486.617 272.511 487.01 272.395 487.484 272.395C487.966 272.395 488.352 272.511 488.352 272.643C488.352 272.781 488.855 272.891 489.468 272.891C490.153 272.891 490.583 273.007 490.583 273.182C490.583 273.343 490.649 273.401 490.736 273.314C490.962 273.088 492.982 274.218 493.675 274.961C494.003 275.319 494.397 275.61 494.55 275.61C494.696 275.61 494.761 275.713 494.681 275.836C494.601 275.96 494.878 276.135 495.286 276.23C495.695 276.318 496.03 276.5 496.03 276.639C496.03 276.945 496.453 277.368 497.328 277.944C497.707 278.184 498.014 278.491 498.014 278.622C498.014 278.943 498.655 279.563 498.983 279.563C499.129 279.563 499.253 279.789 499.253 280.058C499.253 280.328 499.355 280.554 499.494 280.554C499.625 280.554 499.807 280.831 499.887 281.167C499.975 281.509 500.135 281.786 500.252 281.786C500.361 281.786 500.529 282.034 500.624 282.333C500.726 282.632 500.952 283.026 501.142 283.216C501.324 283.398 501.477 283.711 501.477 283.908C501.477 284.098 501.586 284.258 501.725 284.258C501.864 284.258 501.973 284.535 501.973 284.878C501.973 285.214 502.082 285.491 502.206 285.491C502.337 285.491 502.52 285.884 502.607 286.358C502.695 286.832 502.855 287.226 502.965 287.226C503.067 287.226 503.227 287.613 503.322 288.086C503.409 288.56 503.592 288.954 503.716 288.954C503.847 288.954 503.956 289.618 503.956 290.434C503.956 291.258 503.847 291.915 503.708 291.915C503.57 291.915 503.46 292.141 503.46 292.418C503.46 292.695 503.285 292.986 503.067 293.074C502.768 293.183 502.746 293.264 502.986 293.417C503.191 293.541 502.972 293.672 502.389 293.781C501.885 293.869 501.477 294.051 501.477 294.168C501.477 294.292 501.309 294.386 501.098 294.386C500.894 294.386 500.653 294.554 500.58 294.758C500.5 294.963 500.289 295.13 500.114 295.13C499.931 295.13 499.749 295.247 499.698 295.385C499.654 295.531 498.976 295.714 498.196 295.794C497.416 295.874 496.774 296.027 496.774 296.129C496.774 296.231 495.323 296.399 493.551 296.501C491.786 296.596 490.335 296.771 490.335 296.888C490.335 297.011 489.723 297.106 488.972 297.106C488.221 297.106 487.608 297.216 487.608 297.354C487.608 297.493 486.865 297.602 485.866 297.602C484.757 297.602 484.174 297.507 484.269 297.354ZM487.411 272.723C487.229 272.65 487.018 272.657 486.937 272.745C486.85 272.825 486.996 272.883 487.258 272.876C487.55 272.861 487.608 272.803 487.411 272.723ZM469.168 282.158C468.759 281.94 468.227 281.539 467.979 281.276C467.731 281.014 467.44 280.802 467.323 280.802C467.206 280.802 467.039 280.518 466.958 280.182C466.871 279.84 466.689 279.563 466.557 279.563C466.426 279.563 466.317 279.278 466.317 278.935C466.317 278.593 466.149 278.25 465.945 278.17C465.741 278.09 465.573 277.827 465.573 277.572C465.573 277.324 465.471 277.061 465.347 276.981C465.223 276.908 465.041 276.259 464.946 275.545C464.851 274.838 464.64 274.174 464.486 274.072C464.304 273.963 464.209 272.883 464.209 270.988V268.078L465.077 267.779C465.551 267.619 465.828 267.473 465.697 267.458C465.558 267.444 465.835 267.291 466.317 267.123C467.199 266.802 468.541 267.021 468.541 267.48C468.541 267.604 468.767 267.706 469.036 267.706C469.314 267.706 469.532 267.816 469.532 267.954C469.532 268.085 469.656 268.195 469.802 268.195C469.948 268.195 470.568 268.698 471.18 269.31C471.793 269.923 472.398 270.419 472.522 270.419C472.646 270.419 472.814 270.696 472.901 271.039C472.981 271.381 473.142 271.658 473.244 271.658C473.346 271.658 473.506 272.103 473.594 272.643C473.681 273.19 473.856 273.634 473.987 273.634C474.119 273.634 474.301 273.911 474.381 274.254C474.469 274.59 474.636 274.867 474.76 274.867C474.884 274.867 474.979 275.093 474.979 275.363C474.979 275.632 475.096 275.858 475.227 275.858C475.373 275.858 475.475 276.675 475.475 277.82C475.475 278.899 475.366 279.847 475.227 279.934C475.096 280.015 474.979 280.306 474.979 280.583C474.979 280.853 474.87 281.006 474.731 280.919C474.6 280.839 474.483 280.948 474.483 281.159C474.483 281.378 474.294 281.626 474.053 281.714C473.812 281.801 473.55 281.983 473.462 282.107C473.375 282.239 472.536 282.392 471.603 282.45C470.349 282.53 469.715 282.45 469.168 282.158ZM504.051 281.436C503.978 281.247 503.657 281.021 503.336 280.941C503.008 280.86 502.673 280.547 502.578 280.241C502.476 279.934 502.33 279.628 502.25 279.563C501.754 279.161 501.477 278.133 501.477 276.711C501.477 275.596 501.39 275.136 501.207 275.253C501.01 275.377 501.01 275.282 501.207 274.918C501.353 274.633 501.477 274.006 501.477 273.525C501.477 272.949 501.652 272.497 501.973 272.22C502.243 271.986 502.469 271.513 502.469 271.17C502.476 270.623 502.95 269.485 502.957 270.003C502.972 270.499 504.204 268.8 504.204 268.282C504.204 267.918 504.35 267.706 504.598 267.706C504.817 267.706 505.305 267.48 505.692 267.203C506.836 266.394 510.891 266.583 510.891 267.451C510.891 267.59 511.036 267.706 511.219 267.706C511.569 267.706 512.123 268.705 512.123 269.318C512.123 269.522 512.24 269.682 512.371 269.682C512.524 269.682 512.619 270.71 512.619 272.271C512.619 273.7 512.524 274.867 512.407 274.867C512.283 274.867 512.116 275.319 512.028 275.873C511.933 276.449 511.605 277.142 511.255 277.492C510.912 277.827 510.643 278.265 510.643 278.461C510.643 278.658 510.526 278.819 510.395 278.819C510.256 278.819 510.147 278.994 510.147 279.198C510.147 279.409 509.986 279.635 509.797 279.708C509.607 279.781 509.396 280.058 509.323 280.321C509.257 280.583 508.936 280.904 508.623 281.028C508.28 281.167 508.193 281.276 508.411 281.298C509.454 281.385 507.58 281.757 505.991 281.772C504.656 281.779 504.153 281.699 504.051 281.436ZM463.633 270.171C463.633 269.835 463.684 269.697 463.757 269.865C463.823 270.032 463.823 270.309 463.757 270.484C463.684 270.652 463.633 270.514 463.633 270.171ZM479.274 269.996C479.361 269.85 479.128 269.682 478.727 269.602C477.925 269.442 476.219 267.903 476.219 267.334C476.219 267.13 476.117 266.963 475.985 266.963C475.861 266.963 475.679 266.459 475.592 265.854C475.497 265.242 475.322 264.804 475.205 264.877C475.081 264.95 474.979 264.666 474.979 264.243C474.979 263.791 474.877 263.535 474.731 263.623C474.593 263.718 474.476 263.441 474.469 262.959C474.418 260.407 474.228 256.616 474.126 256.032C474.06 255.653 474.111 255.347 474.243 255.347C474.381 255.347 474.483 255.011 474.483 254.596C474.483 254.151 474.593 253.903 474.731 253.991C474.87 254.071 474.979 253.969 474.979 253.757C474.979 253.546 475.147 253.371 475.351 253.371C475.555 253.371 475.723 253.196 475.723 252.977C475.723 252.678 475.876 252.613 476.343 252.729C476.802 252.846 476.962 252.788 476.962 252.51C476.962 252.088 477.954 252 478.64 252.372C478.873 252.496 479.485 252.671 479.996 252.751C480.506 252.831 480.922 252.999 480.922 253.116C480.922 253.385 482.38 254.858 482.643 254.858C482.752 254.858 482.912 255.289 483 255.821C483.08 256.353 483.233 256.827 483.335 256.871C483.445 256.915 483.751 257.396 484.021 257.928C484.451 258.774 484.509 259.365 484.495 262.456C484.48 264.542 484.371 266.088 484.225 266.182C484.086 266.27 483.904 266.7 483.824 267.138C483.649 268.027 482.964 268.939 482.468 268.939C482.285 268.939 482.191 269.033 482.264 269.143C482.329 269.259 481.862 269.471 481.221 269.624C480.586 269.77 479.843 269.974 479.587 270.076C479.281 270.193 479.165 270.164 479.274 269.996ZM493.055 267.947C493.055 267.816 492.866 267.699 492.625 267.699C492.027 267.692 491.079 266.642 491.079 265.985C491.079 265.694 490.962 265.519 490.831 265.606C490.671 265.701 490.583 264.469 490.583 262.077C490.583 260.05 490.503 258.322 490.408 258.227C490.321 258.132 490.27 257.476 490.306 256.761C490.379 255.427 491.116 253.867 491.677 253.867C491.845 253.867 492.122 253.575 492.282 253.218C492.45 252.86 492.647 252.634 492.727 252.707C492.8 252.788 493.237 252.649 493.697 252.408C494.601 251.92 496.694 251.861 496.978 252.314C497.073 252.459 497.7 252.627 498.371 252.693C499.049 252.758 499.647 252.955 499.705 253.123C499.756 253.291 500.011 253.604 500.267 253.823C500.529 254.042 500.733 254.355 500.733 254.516C500.733 254.683 500.872 254.858 501.04 254.917C501.455 255.055 501.484 261.713 501.061 261.968C500.908 262.07 500.697 262.456 500.602 262.828C500.507 263.2 500.347 263.506 500.23 263.506C500.121 263.506 499.96 263.834 499.866 264.243C499.778 264.651 499.603 264.986 499.479 264.986C499.355 264.986 499.246 265.154 499.246 265.366C499.246 265.832 498.072 266.963 497.591 266.963C497.394 266.963 497.299 267.057 497.372 267.181C497.452 267.305 497.124 267.473 496.65 267.56C496.169 267.655 495.782 267.83 495.782 267.961C495.782 268.093 495.17 268.195 494.419 268.195C493.675 268.195 493.055 268.085 493.055 267.947ZM495.352 251.497C495.44 251.409 495.651 251.402 495.826 251.475C496.023 251.555 495.965 251.614 495.68 251.621C495.418 251.635 495.272 251.577 495.352 251.497Z" fill="#F5F5DC"/>
</g>
</svg>
